<?xml version="1.0" standalone="no"?>
<!DOCTYPE svg PUBLIC "-//W3C//DTD SVG 20010904//EN"
 "http://www.w3.org/TR/2001/REC-SVG-20010904/DTD/svg10.dtd">
<svg version="1.0" xmlns="http://www.w3.org/2000/svg"
 width="300.000000pt" height="366.000000pt" viewBox="0 0 300.000000 366.000000"
 preserveAspectRatio="xMidYMid meet">
<metadata>
Created by potrace 1.10, written by Peter Selinger 2001-2011
</metadata>
<g transform="translate(0.000000,366.000000) scale(0.100000,-0.100000)"
fill="#000000" stroke="none">
<path d="M1645 3360 c-14 -6 -15 -9 -5 -10 8 -1 23 -3 33 -6 9 -2 25 -6 35 -8
9 -2 16 -10 14 -17 -2 -8 0 -11 4 -7 4 4 13 3 20 -3 8 -7 14 -7 19 1 4 6 5 12
4 13 -2 1 -23 12 -46 25 -46 24 -49 25 -78 12z"/>
<path d="M1563 3353 c-28 -11 -10 -23 32 -21 39 1 42 3 27 14 -18 14 -38 16
-59 7z"/>
<path d="M1217 3316 c-9 -10 -21 -14 -27 -11 -5 3 -10 1 -10 -4 0 -6 -6 -11
-14 -11 -8 0 -24 -9 -37 -21 l-24 -20 28 17 c15 9 27 13 27 8 0 -4 5 -3 12 4
7 7 20 12 30 12 10 0 18 5 18 11 0 8 5 7 15 -1 12 -10 19 -10 27 -2 9 9 8 12
-4 12 -9 0 -18 5 -20 11 -3 8 -10 6 -21 -5z"/>
<path d="M985 3173 c-16 -15 -29 -31 -27 -36 2 -5 -4 -17 -11 -26 -28 -31 -48
-82 -62 -158 -8 -43 -17 -91 -21 -108 -3 -16 -7 -109 -9 -205 -5 -231 -4 -218
-15 -225 -5 -3 -13 3 -19 12 -7 12 -10 14 -11 4 0 -8 7 -19 15 -25 25 -19 35
-131 18 -205 -17 -76 -12 -193 12 -291 9 -36 18 -74 20 -85 3 -11 9 -29 14
-40 15 -34 24 -60 23 -67 -1 -5 2 -8 6 -8 5 0 14 -12 21 -27 10 -21 14 -24 21
-13 5 8 6 17 2 20 -12 9 -34 52 -23 45 6 -3 11 -2 11 4 0 5 -3 11 -7 13 -11 5
-49 87 -61 133 -13 49 -27 176 -24 230 0 22 3 108 5 190 5 174 20 281 46 333
11 23 18 60 19 97 1 68 10 152 18 169 3 6 -6 -2 -20 -19 -14 -16 -29 -26 -33
-22 -13 13 12 41 46 53 18 6 36 16 40 23 5 7 10 12 12 11 10 -4 59 20 59 29 0
8 -28 8 -37 1 -2 -2 -7 -3 -13 -4 -5 0 -18 -8 -28 -16 -10 -8 -28 -21 -40 -28
-20 -11 -22 -10 -22 15 1 48 18 117 29 121 6 2 9 7 6 12 -3 5 2 16 11 24 9 9
17 23 18 31 1 8 13 26 26 40 31 32 23 32 -15 -2z m-81 -345 c-6 -7 -9 -41 -8
-75 1 -54 -1 -60 -13 -47 -11 11 -12 21 -5 42 5 16 6 35 1 44 -5 10 -2 22 9
36 18 22 32 22 16 0z"/>
<path d="M1545 3111 c6 -10 4 -13 -7 -9 -8 4 -21 2 -29 -3 -11 -7 -10 -9 4 -9
11 0 30 -9 44 -20 15 -11 29 -18 32 -14 3 3 -3 12 -14 20 -11 8 -20 19 -20 24
0 4 -4 12 -9 17 -6 5 -6 2 -1 -6z"/>
<path d="M1475 3100 c3 -5 0 -10 -7 -10 -9 0 -9 -3 2 -10 24 -15 -15 -13 -41
3 -18 10 -23 9 -39 -11 -12 -15 -26 -21 -37 -18 -10 3 -31 -3 -48 -14 -31 -21
-85 -27 -85 -10 0 6 -5 10 -11 10 -5 0 -7 -4 -4 -10 3 -5 0 -7 -8 -4 -21 8
-44 -23 -28 -39 10 -9 11 -8 5 6 -7 19 -7 19 71 0 16 -3 17 -2 5 6 -12 9 -11
11 8 11 13 0 20 -4 17 -10 -3 -5 2 -10 12 -10 10 0 23 8 30 19 7 11 23 19 38
19 15 0 31 5 35 12 4 7 13 9 19 6 6 -4 11 0 11 8 0 9 5 16 11 16 5 0 7 -4 4
-10 -8 -12 15 -13 34 -1 17 11 25 51 10 51 -5 0 -7 -4 -4 -10z"/>
<path d="M1094 3002 c3 -6 2 -13 -4 -17 -5 -3 -10 -11 -10 -16 0 -6 7 -4 15 5
9 8 22 13 29 10 8 -3 17 0 21 7 5 7 3 10 -6 7 -8 -3 -22 -1 -33 4 -12 7 -16 7
-12 0z"/>
<path d="M2140 2986 c0 -3 11 -26 25 -52 14 -26 25 -39 25 -30 0 26 -28 86
-39 86 -6 0 -11 -2 -11 -4z"/>
<path d="M2165 2793 c0 -138 -20 -308 -43 -365 -10 -24 -35 -50 -30 -31 5 19
-15 95 -22 83 -12 -20 -1 -352 13 -369 9 -11 9 -15 0 -18 -10 -4 -10 -10 -2
-25 6 -11 8 -26 5 -33 -2 -7 0 -29 5 -48 7 -25 17 -37 35 -41 15 -4 28 -5 31
-3 2 3 -8 7 -22 11 -21 5 -25 12 -25 41 0 28 3 33 18 28 16 -5 16 -5 0 8 -16
13 -25 60 -33 174 -2 22 4 53 12 69 21 41 90 106 113 106 15 0 20 7 20 25 0
14 -4 25 -8 25 -10 0 -106 -102 -134 -141 l-17 -24 -1 26 c0 30 13 59 51 109
27 35 36 85 44 225 2 28 6 85 9 129 6 75 2 116 -12 116 -4 0 -7 -35 -7 -77z"/>
<path d="M993 2567 c-18 -7 -33 -15 -33 -19 -1 -37 1 -38 44 -38 24 0 57 -6
73 -14 15 -8 56 -18 90 -23 61 -9 63 -9 59 13 -3 13 -1 25 2 27 4 2 2 3 -4 1
-7 -1 -22 5 -34 13 -17 12 -24 13 -30 3 -6 -9 -13 -9 -28 -1 -13 7 -36 8 -65
2 -45 -8 -45 -8 -31 14 8 12 11 25 7 28 -8 9 -10 8 -50 -6z"/>
<path d="M1840 2539 c0 -4 -7 -6 -15 -3 -8 4 -15 1 -15 -6 0 -6 -5 -8 -12 -4
-7 5 -8 3 -4 -5 21 -34 107 -37 102 -4 -3 17 -56 39 -56 22z"/>
<path d="M1698 2535 c-3 -4 -21 -7 -39 -7 -19 -1 -37 -5 -40 -10 -4 -6 -15 -5
-29 2 -34 18 -47 -3 -18 -30 20 -19 31 -21 84 -17 33 2 72 12 86 21 13 9 28
13 31 9 4 -3 7 1 7 10 0 13 -6 15 -31 10 -19 -4 -34 -1 -38 6 -4 6 -10 9 -13
6z"/>
<path d="M1456 2451 c-3 -5 3 -16 14 -26 21 -19 27 -55 10 -55 -5 0 -10 -4
-10 -10 0 -18 28 2 34 25 4 15 13 23 28 23 52 0 137 15 132 24 -3 4 -9 6 -14
3 -4 -2 -28 -6 -54 -6 -25 -1 -46 -7 -46 -12 0 -6 -8 -3 -18 6 -23 21 -70 38
-76 28z"/>
<path d="M1120 2443 c0 -5 -32 -8 -71 -8 -75 -1 -105 -17 -71 -41 26 -18 84
-24 78 -7 -3 7 3 17 13 23 16 8 20 5 25 -15 5 -21 12 -25 46 -25 28 0 40 4 40
14 0 19 17 29 33 19 6 -4 18 -8 26 -10 8 -1 17 -7 21 -13 4 -7 16 -10 26 -8
14 4 7 10 -26 25 -25 11 -60 24 -78 28 -27 5 -32 4 -32 -11 0 -14 -3 -15 -12
-6 -8 8 -8 15 2 27 10 12 10 15 -4 15 -9 0 -16 -3 -16 -7z"/>
<path d="M1218 2431 c62 -20 99 -48 84 -63 -6 -6 -8 -17 -5 -25 8 -20 36 36
30 59 -6 21 2 27 37 30 14 1 26 6 26 10 0 8 -68 1 -82 -9 -5 -2 -8 2 -8 9 0 9
-3 9 -10 -2 -5 -8 -10 -10 -10 -5 0 6 -26 11 -58 11 l-57 1 53 -16z"/>
<path d="M1684 2422 c3 -5 -26 -15 -65 -22 -38 -7 -73 -18 -76 -23 -4 -6 3 -8
17 -4 13 3 31 1 39 -6 9 -7 12 -8 8 -1 -3 6 5 16 19 23 34 15 42 14 46 -6 4
-20 65 -28 86 -11 7 7 17 7 25 1 6 -5 27 -10 46 -11 31 -2 33 -1 20 15 -11 15
-11 16 1 6 8 -7 25 -13 38 -13 37 0 6 24 -50 38 -63 16 -93 14 -43 -3 27 -9
33 -13 18 -14 -12 -1 -34 4 -48 11 -21 9 -31 9 -46 0 -16 -11 -19 -9 -19 8 0
11 -5 20 -11 20 -5 0 -8 -4 -5 -8z"/>
<path d="M2281 2372 c14 -41 6 -93 -19 -130 -23 -33 -44 -92 -33 -92 5 0 14
15 22 33 7 17 16 34 19 37 16 12 40 76 40 105 0 18 -9 43 -20 56 l-20 24 11
-33z"/>
<path d="M802 2340 c-1 -25 5 -56 14 -70 14 -24 15 -24 8 -2 -3 13 -9 45 -14
70 l-8 47 0 -45z"/>
<path d="M1024 2325 c11 -8 26 -15 34 -15 7 0 10 -5 6 -11 -11 -18 125 -5 161
14 l30 17 -35 -6 c-19 -4 -43 -7 -52 -8 -9 0 -14 -4 -12 -8 8 -13 -20 -9 -88
12 -46 14 -58 15 -44 5z"/>
<path d="M1571 2324 c6 -7 33 -20 61 -30 64 -21 146 -14 188 16 38 27 39 33 1
14 -50 -25 -139 -28 -204 -6 -39 13 -54 15 -46 6z"/>
<path d="M2185 2294 c-15 -96 -31 -159 -44 -171 -7 -8 -10 -17 -7 -20 15 -16
36 29 56 116 13 61 17 98 11 104 -6 6 -12 -4 -16 -29z"/>
<path d="M1444 2208 c6 -32 25 -62 34 -53 3 2 -1 11 -8 20 -7 8 -9 15 -5 15 4
0 2 7 -5 15 -6 8 -9 19 -5 25 3 5 1 10 -6 10 -8 0 -9 -10 -5 -32z"/>
<path d="M1236 2184 c-20 -26 -39 -58 -42 -70 -9 -36 44 -101 61 -74 3 5 -4
12 -15 15 -29 9 -43 50 -27 75 6 11 17 20 23 20 13 0 51 67 42 75 -3 4 -22
-15 -42 -41z"/>
<path d="M1516 2174 c-4 -9 -2 -22 4 -28 14 -14 13 -69 -2 -84 -16 -16 -49
-15 -45 1 1 8 -17 12 -63 13 -36 0 -89 4 -117 8 -63 9 -74 -9 -13 -19 22 -4
42 -11 46 -16 7 -12 71 -12 79 1 9 15 42 12 70 -6 46 -30 82 13 70 84 -8 51
-20 69 -29 46z"/>
<path d="M1290 2010 c-19 -19 -24 -32 -21 -55 1 -5 -5 -2 -12 8 -8 9 -23 17
-33 18 -18 0 -18 1 1 8 12 5 23 4 27 -3 4 -6 6 -1 6 10 -2 19 -5 20 -35 11
-18 -6 -30 -14 -27 -19 3 -4 -5 -8 -18 -8 -13 0 -29 -5 -35 -11 -8 -8 -13 -8
-18 1 -5 8 -10 8 -21 -1 -11 -9 -11 -13 1 -26 9 -8 13 -19 10 -24 -9 -14 7
-10 29 6 10 8 23 12 28 9 4 -3 11 1 14 9 5 14 45 16 74 3 10 -4 21 3 33 24 10
16 15 30 11 30 -3 0 -1 7 6 15 18 22 3 18 -20 -5z"/>
<path d="M1420 2013 c0 -7 5 -13 10 -13 6 0 16 -11 22 -25 6 -14 16 -25 21
-25 5 0 4 7 -3 15 -7 9 -10 18 -7 21 10 10 27 -7 27 -27 0 -11 4 -18 10 -14 5
3 6 13 3 22 -5 13 -2 12 15 -3 12 -10 28 -19 37 -21 8 -2 23 -5 33 -7 9 -3 24
-5 32 -6 11 -1 11 -3 2 -7 -22 -9 -2 -23 24 -17 19 5 23 3 18 -10 -3 -9 -4
-16 -1 -16 3 0 9 13 15 28 8 24 7 28 -9 28 -11 0 -19 -5 -19 -11 -1 -5 -7 1
-14 14 -12 22 -28 30 -63 33 -7 1 -13 6 -13 12 0 6 -5 4 -10 -4 -7 -11 -10
-12 -10 -2 0 9 -10 12 -27 10 -17 -2 -27 2 -26 9 1 6 -4 14 -13 17 -8 3 -12 2
-9 -4 3 -6 1 -10 -4 -10 -6 0 -11 6 -11 13 0 8 -7 14 -15 14 -8 0 -15 -6 -15
-14z"/>
<path d="M1323 1988 c-7 -8 -7 -22 -2 -36 7 -19 15 -23 41 -20 28 2 34 8 36
31 2 15 -1 27 -7 27 -6 0 -12 -4 -12 -10 -1 -5 -2 -14 -3 -20 -2 -19 -21 -15
-24 5 -5 29 -17 38 -29 23z"/>
<path d="M1839 1919 c-3 -15 0 -34 8 -45 12 -17 13 -17 13 3 0 12 3 30 6 40 5
14 4 15 -4 4 -8 -11 -11 -10 -14 5 -3 15 -5 14 -9 -7z"/>
<path d="M1392 1913 c-18 -4 -21 -9 -16 -29 6 -25 -4 -32 -22 -14 -6 6 -42 11
-82 13 -40 1 -72 5 -72 9 0 4 -11 3 -25 -2 -17 -6 -33 -6 -51 2 -22 11 -28 10
-40 -7 -15 -21 -10 -35 7 -18 8 8 19 9 38 1 14 -5 109 -11 211 -13 102 -1 209
-6 238 -10 28 -4 52 -5 52 -2 0 3 -22 16 -50 30 -27 14 -50 21 -50 16 0 -5
-29 -9 -65 -9 -68 0 -76 4 -47 26 17 14 14 15 -26 7z"/>
<path d="M1678 1875 c-10 -13 -18 -29 -18 -34 0 -6 -6 -10 -12 -8 -14 2 -14 0
7 -78 9 -37 9 -52 1 -57 -7 -5 -5 -8 6 -8 14 0 16 7 12 38 -10 67 -10 91 -2
86 10 -7 30 44 26 67 -3 15 -6 14 -20 -6z"/>
<path d="M1081 1840 c-12 -17 -20 -34 -17 -37 3 -3 0 -15 -6 -27 -10 -18 -9
-19 4 -9 8 7 18 10 22 6 4 -4 4 0 0 10 -4 12 -1 17 12 18 11 0 14 3 7 6 -10 3
-10 10 -2 24 18 35 4 41 -20 9z"/>
<path d="M1063 1753 c-7 -2 -13 -9 -13 -14 0 -11 46 -7 57 6 4 4 2 5 -4 1 -7
-4 -13 -2 -13 3 0 12 -7 13 -27 4z"/>
<path d="M1209 1748 c-8 -28 -5 -36 17 -34 28 1 29 3 10 22 -13 13 -25 18 -27
12z"/>
<path d="M1301 1743 c-1 -7 6 -16 15 -21 10 -6 13 -12 6 -16 -6 -3 -17 1 -25
9 -9 8 -20 15 -26 15 -10 0 -26 -38 -19 -45 2 -3 43 -6 91 -8 82 -4 87 -3 87
16 0 21 0 21 16 1 14 -17 15 -17 10 -1 -3 10 -6 21 -6 23 0 2 -7 4 -16 4 -8 0
-12 5 -9 10 3 6 1 10 -4 10 -6 0 -11 -5 -11 -11 0 -6 -7 -17 -15 -25 -8 -9
-15 -11 -15 -6 0 5 -7 9 -16 8 -9 0 -19 5 -22 13 -3 10 0 11 9 5 23 -14 37
-13 43 3 5 12 -2 14 -39 11 -25 -2 -47 1 -49 7 -3 5 -5 5 -5 -2z"/>
<path d="M960 1643 c0 -5 9 -23 21 -42 12 -19 36 -63 54 -98 l33 -63 -39 -42
c-22 -24 -39 -47 -38 -53 0 -5 3 -4 6 3 2 6 9 10 14 6 5 -3 9 3 9 12 0 10 3
14 7 11 3 -4 13 2 20 13 8 11 19 18 24 15 9 -6 14 10 9 30 -1 6 -3 15 -4 20
-1 6 -12 28 -24 49 -13 21 -20 41 -18 44 3 3 -2 11 -12 19 -9 8 -11 12 -4 8 6
-3 12 -1 12 4 0 6 -4 11 -10 11 -5 0 -10 4 -10 10 0 5 -8 19 -17 30 -18 20
-33 26 -33 13z"/>
<path d="M1178 1614 c-35 -19 -36 -27 -2 -14 22 9 25 8 20 -5 -8 -22 11 -9 24
16 13 24 -2 25 -42 3z"/>
<path d="M1880 1569 c-8 -10 -20 -19 -27 -19 -6 0 -16 -6 -20 -13 -4 -7 -25
-26 -45 -41 -21 -16 -38 -33 -38 -40 0 -6 -13 -17 -28 -24 -16 -7 -35 -23 -42
-37 -7 -14 -17 -25 -22 -25 -5 0 -21 -14 -35 -30 -14 -17 -41 -37 -61 -45 -41
-18 -37 -30 6 -20 19 4 64 40 128 106 54 54 102 99 105 99 15 0 111 97 102
103 -5 3 -16 -3 -23 -14z"/>
<path d="M1732 1328 c-35 -51 -51 -79 -37 -63 14 17 30 29 35 28 5 -2 19 12
32 30 15 21 17 27 5 18 -22 -18 -22 -6 1 27 25 35 34 52 30 52 -2 0 -32 -42
-66 -92z"/>
<path d="M2243 1403 c4 -6 1 -13 -6 -16 -7 -3 -45 -51 -85 -108 -106 -154
-165 -224 -188 -223 -10 1 -44 11 -74 23 -30 11 -73 25 -95 30 -22 6 -85 22
-140 36 -90 23 -156 27 -172 11 -4 -3 -1 -6 5 -6 20 0 13 -18 -9 -25 -11 -4
-18 -9 -15 -12 3 -3 17 2 31 11 17 11 39 15 63 13 48 -6 241 -56 267 -70 11
-6 31 -12 45 -13 14 -1 26 -3 28 -4 2 -3 18 -7 33 -9 5 0 8 -5 5 -9 -4 -8 38
-9 54 -2 3 1 9 2 13 1 5 -1 6 3 2 9 -3 5 -2 10 4 10 6 0 22 20 37 45 14 25 30
43 34 40 5 -3 12 0 16 6 5 8 3 9 -6 4 -8 -5 -11 -3 -8 6 3 8 10 13 16 12 7 -2
9 4 5 14 -5 12 -3 14 8 8 8 -4 11 -5 7 0 -8 8 13 54 34 77 51 53 107 138 97
144 -7 4 -9 3 -6 -3z"/>
<path d="M1085 1293 c0 -42 1 -69 3 -60 2 9 8 17 13 17 17 0 22 -32 10 -66 -9
-24 -9 -39 -2 -51 9 -15 10 -13 11 15 0 18 5 41 12 52 10 15 8 31 -11 87 -13
37 -27 71 -30 75 -3 4 -6 -27 -6 -69z"/>
<path d="M1821 1313 c-22 -32 -24 -38 -7 -18 14 17 30 30 35 30 6 0 16 7 23
15 11 12 11 12 -6 0 -18 -14 -19 -13 -13 3 10 27 3 20 -32 -30z"/>
<path d="M1904 1323 c-15 -21 -39 -53 -52 -70 -13 -18 -22 -33 -19 -33 3 0 22
23 42 50 21 28 40 49 43 46 2 -3 1 -11 -4 -19 -5 -7 3 1 18 18 15 16 28 25 28
20 0 -6 -5 -16 -12 -23 -7 -7 -9 -12 -6 -12 4 0 17 15 29 33 16 21 17 27 6 18
-9 -7 -17 -10 -17 -6 0 5 -9 0 -20 -10 -21 -19 -28 -7 -8 13 7 7 9 12 6 12 -3
0 -18 -17 -34 -37z"/>
<path d="M987 1270 c-10 -12 -23 -18 -30 -14 -6 4 -9 4 -5 -1 4 -4 2 -15 -5
-23 -10 -13 -9 -14 2 -7 11 6 13 4 8 -8 -9 -24 8 -29 27 -8 13 14 14 21 5 27
-9 5 -9 10 2 18 12 10 24 36 16 36 -1 0 -10 -9 -20 -20z"/>
<path d="M1889 1233 c-23 -32 -33 -49 -21 -39 30 26 28 12 -5 -32 -16 -20 -21
-31 -12 -25 9 7 18 11 21 8 3 -3 13 5 24 17 l19 23 -22 -19 c-33 -27 -28 -11
9 38 20 25 24 34 10 22 -30 -26 -28 -12 4 30 15 19 24 34 21 34 -2 0 -24 -26
-48 -57z"/>
<path d="M1440 1254 l-45 -13 45 6 c25 3 54 9 65 14 20 8 20 8 0 7 -11 0 -40
-6 -65 -14z"/>
<path d="M1825 1250 c-4 -6 -10 -8 -15 -5 -4 3 -14 -3 -21 -13 -13 -15 -12
-16 4 -3 23 18 21 5 -5 -32 -12 -18 -15 -26 -7 -20 9 7 18 11 21 8 3 -3 11 3
19 12 13 16 12 17 -3 4 -24 -18 -23 -6 3 30 11 16 18 29 15 29 -3 0 -8 -5 -11
-10z"/>
<path d="M1935 1190 c-25 -33 -44 -60 -41 -60 3 0 26 27 51 60 25 33 44 60 41
60 -3 0 -26 -27 -51 -60z"/>
<path d="M886 1195 c-9 -26 -7 -63 5 -70 5 -4 19 1 29 10 13 12 16 23 11 43
-8 31 -35 41 -45 17z"/>
<path d="M793 1154 c-45 -26 -52 -34 -30 -34 11 1 88 59 77 60 -3 0 -24 -12
-47 -26z"/>
<path d="M1234 1142 c4 -7 14 -12 22 -12 8 0 14 -5 14 -11 0 -5 4 -8 9 -4 5 3
12 1 16 -4 3 -6 13 -7 21 -4 18 7 6 21 -22 28 -10 2 -30 7 -43 11 -17 5 -22 4
-17 -4z"/>
<path d="M1397 1112 c-37 -21 -70 -45 -73 -54 -3 -10 0 -45 7 -78 l12 -61 -39
-41 -39 -41 42 29 c24 16 43 33 43 37 0 5 7 15 15 24 9 8 13 18 10 21 -3 4
-10 0 -16 -8 -7 -11 -8 -7 -3 13 4 19 2 27 -7 27 -8 0 -5 7 7 19 10 10 22 17
27 14 4 -2 7 1 7 6 0 6 15 17 33 25 26 12 28 15 10 15 -12 1 -25 -4 -28 -9 -9
-15 -64 -9 -58 6 4 12 56 37 80 38 6 1 15 5 20 10 4 5 3 6 -4 2 -6 -3 -14 -2
-18 4 -3 5 0 10 8 10 8 0 20 7 27 15 16 19 17 20 -63 -23z"/>
<path d="M667 1081 c-37 -21 -87 -44 -110 -51 -102 -33 -204 -123 -260 -231
-21 -41 -29 -63 -18 -49 11 14 21 30 21 36 0 15 40 50 40 35 0 -7 5 -9 11 -5
8 5 6 10 -5 16 -15 8 -15 11 0 34 9 13 19 22 22 19 3 -3 34 23 69 56 46 45 69
60 83 56 11 -3 18 -1 14 4 -3 5 1 9 8 9 7 0 30 9 51 20 20 11 42 20 47 20 6 0
27 11 47 25 20 13 40 22 45 19 4 -3 8 2 8 10 0 9 -1 16 -2 15 -2 0 -34 -18
-71 -38z"/>
<path d="M1136 1102 c-3 -10 -19 -23 -36 -29 -16 -6 -30 -17 -30 -24 0 -8 6
-7 18 4 14 13 21 14 31 4 15 -15 31 6 31 41 0 27 -7 29 -14 4z"/>
<path d="M930 1090 c-12 -23 -11 -24 25 -10 14 5 23 14 20 20 -10 17 -34 11
-45 -10z"/>
<path d="M1177 1070 c8 -48 22 -84 29 -77 10 9 -5 71 -21 93 -14 18 -14 16 -8
-16z"/>
<path d="M1567 1052 c-21 -21 -35 -41 -30 -45 4 -5 0 -5 -10 -1 -9 3 -17 2
-17 -4 0 -5 -9 -12 -20 -15 -18 -5 -17 -2 5 27 14 18 25 37 25 41 0 5 -11 -6
-24 -23 -13 -18 -36 -45 -52 -61 -16 -16 -47 -50 -69 -76 -37 -43 -139 -105
-172 -105 -22 0 -112 -64 -108 -77 2 -6 -1 -14 -8 -16 -7 -2 -9 -8 -5 -12 4
-4 18 4 31 19 13 14 27 23 30 19 4 -3 7 -1 7 7 0 10 3 10 15 0 8 -7 12 -17 8
-24 -3 -6 -2 -8 2 -3 5 4 17 -5 27 -20 10 -16 18 -23 18 -16 0 7 11 24 25 39
14 15 23 34 21 41 -3 7 -1 13 4 13 6 0 10 6 10 14 0 12 37 33 47 28 6 -3 72
66 88 91 10 15 20 25 23 23 7 -7 32 20 32 35 0 7 3 10 6 6 6 -6 23 7 89 71 25
24 45 48 45 53 0 13 -1 12 -43 -29z m-319 -313 c-2 -19 -9 -24 -33 -24 -23 0
-31 5 -33 23 -2 12 1 22 7 22 6 0 11 -6 11 -13 0 -8 7 -14 14 -14 8 0 15 3 14
6 -3 28 3 44 13 34 6 -6 9 -21 7 -34z"/>
<path d="M1010 1040 c0 -11 5 -20 11 -20 5 0 8 -4 5 -8 -3 -5 1 -20 9 -35 7
-14 10 -29 7 -33 -4 -5 0 -3 10 4 12 10 18 10 24 1 4 -7 3 -9 -3 -6 -5 3 -10
0 -10 -8 0 -10 5 -11 19 -4 14 8 20 6 24 -8 3 -10 10 -27 17 -38 6 -11 17 -32
24 -47 8 -15 19 -30 24 -34 5 -3 -7 26 -27 66 -20 39 -34 73 -31 77 6 6 51
-20 75 -43 6 -7 13 -25 13 -41 l1 -28 8 30 8 30 2 -30 c2 -25 3 -27 7 -7 4 19
7 21 19 11 25 -21 16 9 -18 59 -39 59 -37 56 -43 50 -3 -3 2 -13 11 -22 24
-25 7 -33 -27 -13 -17 9 -40 17 -50 17 -34 0 -57 18 -64 50 -8 37 -45 62 -45
30z"/>
<path d="M1846 968 c3 -5 10 -5 16 -2 7 5 9 2 6 -8 -5 -12 0 -15 23 -13 21 2
29 -1 25 -10 -5 -14 19 -14 31 0 5 4 2 5 -6 0 -11 -6 -13 -4 -9 7 5 12 0 15
-23 13 -20 -2 -29 1 -26 9 3 7 -5 12 -18 12 -13 0 -21 -4 -19 -8z"/>
<path d="M2760 915 c-7 -8 -16 -13 -20 -10 -4 3 -14 -3 -21 -13 -13 -15 -12
-16 4 -3 18 14 24 2 7 -15 -7 -7 -6 -11 5 -11 8 0 23 10 32 21 17 20 17 20 1
7 -23 -17 -23 -3 -1 21 9 10 14 18 11 18 -3 0 -11 -7 -18 -15z"/>
<path d="M1804 903 c7 -12 -5 -18 -27 -14 -5 1 -6 -3 -2 -9 3 -6 10 -8 15 -5
5 3 11 1 15 -5 4 -6 11 -7 17 -4 7 5 9 2 6 -7 -4 -11 3 -15 27 -15 19 0 31 4
29 8 -3 5 -10 5 -16 2 -7 -5 -9 -1 -5 9 4 12 1 15 -14 12 -16 -3 -19 0 -14 13
3 9 3 13 -1 9 -4 -4 -14 -1 -22 6 -13 9 -14 9 -8 0z"/>
<path d="M1457 853 c4 -11 8 -11 13 -3 5 9 9 9 14 1 4 -6 5 -15 2 -19 -3 -5 1
-9 9 -9 8 0 15 4 15 9 0 5 6 6 13 2 8 -6 8 -3 -1 9 -8 9 -17 16 -20 15 -4 0
-9 1 -12 2 -24 9 -38 6 -33 -7z"/>
<path d="M2574 799 c-3 -5 2 -22 11 -40 9 -17 14 -36 12 -43 -3 -7 0 -13 6
-13 7 0 12 10 12 23 0 12 -4 20 -9 16 -5 -3 -6 2 -3 12 4 10 3 15 -3 11 -13
-8 -13 1 -1 24 8 13 6 18 -5 18 -8 0 -17 -4 -20 -8z"/>
<path d="M1758 742 c4 -11 1 -13 -9 -7 -8 5 -11 5 -6 -1 5 -5 12 -9 15 -9 4 0
14 -4 22 -9 12 -7 13 -6 3 5 -30 32 1 35 39 4 l23 -19 -22 24 c-26 28 -75 36
-65 12z"/>
<path d="M2547 704 c10 -19 19 -30 22 -23 2 7 9 2 17 -12 7 -13 13 -19 13 -14
0 17 -28 61 -29 45 0 -8 -7 -3 -16 13 -21 39 -27 33 -7 -9z"/>
<path d="M2800 701 c-16 -30 -11 -39 6 -11 14 23 15 24 10 3 -9 -35 -14 -59
-9 -45 3 6 9 12 14 12 5 0 9 10 9 23 0 18 2 19 10 7 5 -8 10 -10 10 -5 0 32
-35 43 -50 16z"/>
<path d="M232 674 c-24 -36 -73 -210 -71 -253 1 -20 3 -17 10 14 5 21 15 43
22 47 9 6 9 8 -2 8 -11 0 -11 3 -1 15 6 8 9 19 5 25 -3 5 -2 10 2 10 5 0 9 8
10 18 0 9 13 46 28 80 14 35 25 65 23 67 -2 2 -13 -12 -26 -31z"/>
<path d="M2627 696 c-4 -9 -3 -23 0 -33 4 -11 3 -14 -5 -9 -8 5 -10 1 -5 -10
4 -11 8 -13 11 -6 2 7 8 10 12 7 5 -3 12 0 16 6 5 8 3 9 -6 4 -9 -5 -10 -2 -6
11 7 25 -8 53 -17 30z"/>
<path d="M996 683 c-9 -22 -7 -26 9 -19 8 3 15 1 15 -3 0 -5 -5 -11 -12 -13
-7 -3 -8 -7 -2 -11 5 -3 15 2 20 11 8 13 6 21 -7 34 -15 14 -18 15 -23 1z"/>
<path d="M2472 692 c2 -8 7 -12 12 -10 4 2 13 -8 20 -21 13 -23 13 -23 19 -2
3 11 1 19 -3 16 -5 -3 -13 3 -19 12 -8 14 -10 15 -11 3 0 -13 -1 -13 -11 0 -7
10 -9 11 -7 2z"/>
<path d="M1095 635 c-7 -33 -9 -36 -16 -20 -5 12 -8 14 -8 5 0 -8 4 -24 9 -35
6 -17 9 -13 15 20 7 33 9 36 16 20 5 -12 8 -14 8 -5 0 8 -4 24 -9 35 -6 17 -9
13 -15 -20z"/>
<path d="M1644 645 c-4 -9 -13 -14 -22 -13 -8 2 -17 -4 -19 -12 -3 -9 -1 -11
4 -5 11 14 46 12 51 -3 2 -6 9 -12 15 -12 8 0 7 4 -1 12 -16 16 -15 31 1 22 8
-5 8 -2 -2 9 -17 21 -20 21 -27 2z"/>
<path d="M2447 635 c-4 -9 -3 -13 3 -10 13 8 13 3 -1 -32 -5 -15 -7 -24 -3
-20 5 4 13 -2 20 -14 11 -21 11 -20 10 9 0 16 -5 28 -10 25 -4 -3 -6 3 -2 13
8 25 -9 53 -17 29z"/>
<path d="M2872 630 c-1 -14 3 -43 7 -65 6 -26 9 -31 9 -15 1 14 -3 43 -7 65
-6 26 -9 31 -9 15z"/>
<path d="M2580 638 c0 -4 8 -23 17 -43 16 -33 16 -36 -1 -48 -16 -12 -17 -14
-2 -14 9 0 19 11 23 25 4 18 8 20 14 10 15 -22 9 5 -6 32 -9 15 -15 19 -15 10
0 -9 -6 -5 -15 10 -8 14 -14 22 -15 18z"/>
<path d="M1126 606 c-4 -16 -5 -31 -1 -34 3 -3 5 3 5 14 1 14 5 11 15 -11 17
-38 18 -22 1 25 l-13 35 -7 -29z"/>
<path d="M2527 596 c-4 -11 -3 -15 4 -10 8 4 9 -1 4 -17 -5 -19 -4 -21 4 -9
10 13 11 13 11 0 1 -11 3 -11 11 3 6 10 8 21 5 24 -3 4 -6 0 -6 -8 -1 -8 -7
-3 -14 10 -11 20 -14 21 -19 7z"/>
<path d="M1855 579 c-8 -13 8 -32 30 -35 11 -2 13 2 5 16 -14 25 -27 33 -35
19z"/>
<path d="M2731 554 c-6 -15 -9 -29 -6 -32 3 -4 8 4 12 17 4 17 8 19 14 9 6 -9
9 -7 9 10 0 30 -14 28 -29 -4z"/>
<path d="M2690 561 c0 -7 -5 -9 -10 -6 -6 3 -13 -1 -16 -10 -6 -13 -9 -14 -16
-3 -5 8 -6 3 -2 -15 4 -20 3 -27 -6 -25 -7 2 -15 -4 -17 -12 -4 -13 -3 -13 6
0 10 13 11 13 12 0 0 -8 9 3 19 25 10 22 19 33 20 25 0 -12 3 -11 11 3 6 10 8
21 5 24 -3 4 -6 1 -6 -6z"/>
<path d="M1110 544 c0 -14 -2 -16 -9 -6 -6 10 -10 7 -15 -13 -4 -15 -5 -30 -1
-33 3 -3 5 3 6 14 0 18 1 18 8 -1 7 -16 9 -14 14 15 4 18 5 35 2 38 -3 3 -5
-3 -5 -14z"/>
<path d="M2934 535 c-4 -9 -2 -30 4 -48 10 -31 10 -30 6 13 -3 35 -2 39 5 20
8 -23 9 -24 10 -3 1 27 -17 40 -25 18z"/>
<path d="M2540 534 c0 -5 6 -18 13 -29 17 -23 33 -3 18 22 -8 14 -10 15 -11 3
0 -13 -1 -13 -10 0 -5 8 -10 10 -10 4z"/>
<path d="M2685 500 c-5 -15 -2 -25 6 -31 10 -6 15 -2 17 13 3 17 6 18 14 7 7
-10 9 -11 6 -1 -2 8 -7 13 -12 12 -5 -1 -12 4 -16 10 -5 9 -10 5 -15 -10z"/>
<path d="M2431 505 c0 -18 28 -61 29 -45 0 9 6 5 15 -10 22 -38 17 -10 -5 30
-11 19 -19 28 -20 20 0 -13 -1 -13 -10 0 -5 8 -10 11 -9 5z"/>
<path d="M1215 481 c7 -10 6 -15 -2 -18 -7 -2 -9 -11 -6 -19 3 -8 1 -14 -4
-14 -5 0 -9 -8 -9 -19 0 -11 6 -17 13 -14 6 3 9 11 6 19 -3 8 0 14 6 14 6 0 8
8 5 18 -5 15 -3 14 10 -2 9 -11 18 -18 20 -15 3 2 -8 18 -22 34 -15 17 -22 24
-17 16z"/>
<path d="M1037 408 c-4 -15 -2 -37 3 -50 9 -19 9 -18 4 12 -4 26 -3 31 5 20
12 -17 13 -4 2 25 -7 18 -8 17 -14 -7z"/>
<path d="M1667 389 c22 -34 24 -42 12 -51 -11 -8 -11 -9 3 -4 10 3 22 -2 27
-12 6 -9 11 -12 11 -7 0 11 -68 115 -75 115 -3 0 7 -18 22 -41z"/>
<path d="M2265 410 c-6 -9 -4 -11 5 -5 9 6 10 1 5 -16 -4 -17 -3 -20 3 -10 7
10 11 10 14 1 2 -7 9 1 16 16 10 24 10 26 -1 12 -12 -15 -14 -15 -23 0 -9 13
-12 13 -19 2z"/>
<path d="M1941 404 c-1 -6 13 -35 30 -65 17 -30 28 -45 24 -34 -16 47 -16 50
-1 31 24 -29 19 -14 -10 35 -14 24 -22 34 -19 22 3 -13 4 -23 0 -23 -3 0 -10
10 -15 23 -5 12 -9 17 -9 11z"/>
<path d="M1745 350 c17 -32 19 -44 8 -37 -5 3 -14 -1 -20 -8 -10 -11 -9 -13 7
-12 11 1 20 6 20 11 0 5 7 1 15 -10 9 -10 4 5 -10 34 -14 28 -28 52 -30 52 -3
0 1 -13 10 -30z"/>
<path d="M2053 316 c-6 -20 -7 -34 -3 -31 5 3 11 -1 14 -7 3 -7 3 1 0 17 -4
23 -3 27 5 15 12 -17 13 -4 2 24 -6 15 -9 12 -18 -18z"/>
<path d="M140 316 c0 -7 -3 -28 -6 -45 -4 -17 -3 -31 2 -31 5 0 10 20 12 45 1
25 0 45 -3 45 -3 0 -5 -6 -5 -14z"/>
<path d="M1046 304 c-4 -14 -5 -29 -1 -32 3 -3 5 3 5 14 1 15 4 14 16 -8 21
-40 26 -34 7 10 -20 48 -19 48 -27 16z"/>
<path d="M1917 303 c6 -16 5 -16 -11 -4 -16 13 -16 12 -4 -14 10 -22 14 -25
16 -11 4 16 5 16 18 -1 12 -14 12 -11 -1 15 -16 34 -29 44 -18 15z"/>
<path d="M1967 279 c-4 -16 -1 -43 8 -65 14 -36 14 -32 0 36 -4 16 2 11 15
-15 20 -41 18 -15 -4 40 l-13 30 -6 -26z"/>
<path d="M1760 273 c1 -11 49 -100 50 -92 0 10 -40 99 -45 99 -3 0 -5 -3 -5
-7z"/>
<path d="M2320 245 c0 -5 5 -17 10 -25 9 -13 10 -13 10 0 0 13 1 13 10 0 13
-20 12 -33 -2 -24 -7 5 -8 3 -3 -5 5 -8 11 -9 17 -3 6 6 4 20 -6 38 -8 16 -15
22 -16 14 0 -13 -1 -13 -10 0 -5 8 -10 11 -10 5z"/>
<path d="M117 157 c-4 -40 -10 -91 -13 -114 -4 -27 -3 -43 3 -43 15 0 36 217
23 225 -4 2 -10 -28 -13 -68z"/>
<path d="M900 211 c14 -28 12 -36 -5 -21 -13 11 -14 10 -9 -4 4 -10 13 -15 21
-12 8 3 16 6 19 6 2 0 -2 11 -8 25 -6 14 -15 25 -20 25 -5 0 -4 -9 2 -19z"/>
<path d="M1574 216 c-6 -6 -9 -17 -6 -24 4 -14 -15 -17 -20 -3 -1 5 -9 3 -16
-5 -10 -11 -8 -13 18 -10 27 3 41 -6 23 -17 -5 -2 -2 -2 5 -1 13 4 17 -12 5
-19 -5 -2 -3 -3 3 -1 7 1 20 -15 29 -37 10 -22 20 -37 22 -35 3 2 -4 21 -15
43 -32 63 -35 81 -15 79 10 0 23 -10 30 -21 15 -24 17 -11 3 15 -6 11 -16 17
-23 14 -8 -3 -18 4 -23 15 -7 15 -12 16 -20 7z"/>
<path d="M1030 118 c0 -6 6 -19 14 -27 13 -14 12 -19 -4 -41 -16 -21 -22 -23
-38 -13 -25 15 -41 3 -31 -22 7 -18 8 -18 9 5 1 23 2 23 10 5 5 -11 9 -15 9
-10 1 6 5 4 9 -3 15 -22 54 31 56 77 2 34 -1 41 -16 41 -10 0 -18 -5 -18 -12z"/>
<path d="M1004 79 c-3 -6 -1 -16 5 -22 9 -9 14 -8 21 3 9 15 4 30 -10 30 -5 0
-12 -5 -16 -11z"/>
</g>
</svg>
